<svg width="1280" height="720" xmlns="http://www.w3.org/2000/svg" xmlns:xlink="http://www.w3.org/1999/xlink" overflow="hidden"><defs><clipPath id="clip0"><path d="M0 0 1280 0 1280 720 0 720Z" fill-rule="evenodd" clip-rule="evenodd"/></clipPath></defs><g clip-path="url(#clip0)"><rect x="0" y="0" width="1280" height="720" fill="#FFFFFF"/><path d="M395.5 135.058C395.5 127.018 402.018 120.5 410.058 120.5L899.942 120.5C907.982 120.5 914.5 127.018 914.5 135.058L914.5 277.942C914.5 285.982 907.982 292.5 899.942 292.5L410.058 292.5C402.018 292.5 395.5 285.982 395.5 277.942Z" stroke="#D95F02" stroke-width="3" stroke-miterlimit="8" fill="none" fill-rule="evenodd"/><path d="M375.023 167.029 940.825 214.803 927.523 372.331 361.722 324.556Z" fill="#FFFFFF" fill-rule="evenodd"/><path d="M397 146.5 397 171.894 394 171.894 394 146.5ZM400 170.394 395.5 185.394 391 170.394Z" fill="#DB4437"/><path d="M785 272.484C785 269.455 787.455 267 790.484 267L1036.52 267C1039.54 267 1042 269.455 1042 272.484L1042 425.516C1042 428.545 1039.54 431 1036.52 431L790.484 431C787.455 431 785 428.545 785 425.516Z" fill="#FF0000" fill-rule="evenodd" fill-opacity="0.109804"/><path d="M627.5 296.933C627.5 290.619 632.619 285.5 638.933 285.5L839.067 285.5C845.381 285.5 850.5 290.619 850.5 296.933L850.5 505.067C850.5 511.381 845.381 516.5 839.067 516.5L638.933 516.5C632.619 516.5 627.5 511.381 627.5 505.067Z" stroke="#1B9E77" stroke-width="3" stroke-linejoin="round" stroke-miterlimit="10" fill="none" fill-rule="evenodd"/><path d="M774.272 251.475 885.126 567.481 728.693 622.357 617.84 306.351Z" fill="#FFFFFF" fill-rule="evenodd"/><rect x="614" y="281" width="166" height="250" fill="#FFFFFF"/><path d="M850.5 460.417C850.5 456.597 853.597 453.5 857.417 453.5L920.583 453.5C924.403 453.5 927.5 456.597 927.5 460.417L927.5 509.583C927.5 513.403 924.403 516.5 920.583 516.5L857.417 516.5C853.597 516.5 850.5 513.403 850.5 509.583Z" stroke="#1B9E77" stroke-width="3" stroke-linejoin="round" stroke-miterlimit="10" fill="#FFFFFF" fill-rule="evenodd"/><rect x="853.5" y="435.5" width="127" height="63" stroke="#FFFFFF" stroke-miterlimit="8" fill="#FFFFFF"/><path d="M518 322.418C518 315.008 524.008 309 531.418 309L617.582 309C624.992 309 631 315.008 631 322.418L631 329.582C631 336.992 624.992 343 617.582 343L531.418 343C524.008 343 518 336.992 518 329.582Z" fill="#ACCAFA" fill-rule="evenodd"/><path d="M518 361.418C518 354.008 524.008 348 531.418 348L617.582 348C624.992 348 631 354.008 631 361.418L631 368.582C631 375.992 624.992 382 617.582 382L531.418 382C524.008 382 518 375.992 518 368.582Z" fill="#ACCAFA" fill-rule="evenodd"/><path d="M518 439.418C518 432.008 524.008 426 531.418 426L617.582 426C624.992 426 631 432.008 631 439.418L631 446.582C631 453.992 624.992 460 617.582 460L531.418 460C524.008 460 518 453.992 518 446.582Z" fill="#ACCAFA" fill-rule="evenodd"/><path d="M518 400.418C518 393.008 524.008 387 531.418 387L617.582 387C624.992 387 631 393.008 631 400.418L631 407.582C631 414.992 624.992 421 617.582 421L531.418 421C524.008 421 518 414.992 518 407.582Z" fill="#ACCAFA" fill-rule="evenodd"/><path d="M518 478.418C518 471.008 524.008 465 531.418 465L617.582 465C624.992 465 631 471.008 631 478.418L631 485.582C631 492.992 624.992 499 617.582 499L531.418 499C524.008 499 518 492.992 518 485.582Z" fill="#EDA19B" fill-rule="evenodd"/><path d="M518 517.418C518 510.008 524.008 504 531.418 504L617.582 504C624.992 504 631 510.008 631 517.418L631 524.582C631 531.992 624.992 538 617.582 538L531.418 538C524.008 538 518 531.992 518 524.582Z" fill="#ACCAFA" fill-rule="evenodd"/><path d="M514 284.167C514 273.029 523.029 264 534.167 264L614.833 264C625.971 264 635 273.029 635 284.167L635 521.833C635 532.971 625.971 542 614.833 542L534.167 542C523.029 542 514 532.971 514 521.833Z" stroke="#000000" stroke-width="2" stroke-miterlimit="8" stroke-dasharray="2 2" fill="none" fill-rule="evenodd"/><path d="M518 283.418C518 276.008 524.008 270 531.418 270L617.582 270C624.992 270 631 276.008 631 283.418L631 290.582C631 297.992 624.992 304 617.582 304L531.418 304C524.008 304 518 297.992 518 290.582Z" fill="#EDA19B" fill-rule="evenodd"/><path d="M330 198.299C330 192.059 335.059 187 341.299 187L446.701 187C452.941 187 458 192.059 458 198.299L458 417.701C458 423.941 452.941 429 446.701 429L341.299 429C335.059 429 330 423.941 330 417.701Z" fill="#2E75B6" fill-rule="evenodd" fill-opacity="0.109804"/><path d="M817.5 346 993.355 346 993.355 349 817.5 349ZM991.855 343 1006.85 347.5 991.855 352Z" fill="#D95F02"/><path d="M1005 497.5C1005 493.91 1007.91 491 1011.5 491L1037.5 491C1041.09 491 1044 493.91 1044 497.5L1044 532.5C1044 536.09 1041.09 539 1037.5 539L1011.5 539C1007.91 539 1005 536.09 1005 532.5Z" stroke="#000000" stroke-width="2" stroke-miterlimit="8" stroke-dasharray="2 2" fill="#FFFFFF" fill-rule="evenodd"/><path d="M518 210.418C518 203.008 524.008 197 531.418 197L617.582 197C624.992 197 631 203.008 631 210.418L631 217.582C631 224.992 624.992 231 617.582 231L531.418 231C524.008 231 518 224.992 518 217.582Z" fill="#EDA19B" fill-rule="evenodd"/><path d="M694 271.333C694 268.388 696.388 266 699.333 266L720.667 266C723.612 266 726 268.388 726 271.333L726 533.667C726 536.612 723.612 539 720.667 539L699.333 539C696.388 539 694 536.612 694 533.667Z" stroke="#000000" stroke-width="2" stroke-miterlimit="8" stroke-dasharray="2 2" fill="#FFFFFF" fill-rule="evenodd"/><path d="M343 200.5C343 196.91 345.91 194 349.5 194L442.5 194C446.09 194 449 196.91 449 200.5L449 226.5C449 230.09 446.09 233 442.5 233L349.5 233C345.91 233 343 230.09 343 226.5Z" fill="#4285F4" fill-rule="evenodd"/><text fill="#FFFFFF" font-family="Calibri,Calibri_MSFontService,sans-serif" font-weight="700" font-size="24" transform="translate(356.038 221)">Encoder<tspan fill="#000000" font-size="19" x="-177.856" y="346">Dictionary</tspan><tspan fill="#000000" font-weight="400" font-size="19" x="142.495" y="-58">Update Embeddings </tspan><tspan fill="#000000" font-size="19" x="160.295" y="-35">(</tspan><tspan fill="#000000" font-size="19" x="170.295" y="-35">i</tspan><tspan fill="#000000" font-size="19" x="174.962" y="-35">-</tspan><tspan fill="#000000" font-size="19" x="180.628" y="-35">th</tspan><tspan fill="#000000" font-size="19" x="201.295" y="-35">iteration )</tspan></text><path d="M563 214C563 207.373 568.373 202 575 202 581.627 202 587 207.373 587 214 587 220.627 581.627 226 575 226 568.373 226 563 220.627 563 214Z" fill="#595959" fill-rule="evenodd"/><path d="M596 214C596 207.373 601.373 202 608 202 614.627 202 620 207.373 620 214 620 220.627 614.627 226 608 226 601.373 226 596 220.627 596 214Z" fill="#595959" fill-rule="evenodd"/><path d="M530 214C530 207.373 535.373 202 542 202 548.627 202 554 207.373 554 214 554 220.627 548.627 226 542 226 535.373 226 530 220.627 530 214Z" fill="#595959" fill-rule="evenodd"/><path d="M698.5 286C698.5 279.649 703.873 274.5 710.5 274.5 717.128 274.5 722.5 279.649 722.5 286 722.5 292.351 717.128 297.5 710.5 297.5 703.873 297.5 698.5 292.351 698.5 286Z" stroke="#D95F02" stroke-width="3" stroke-miterlimit="8" fill="#C88500" fill-rule="evenodd"/><path d="M698 441C698 434.373 703.373 429 710 429 716.627 429 722 434.373 722 441 722 447.627 716.627 453 710 453 703.373 453 698 447.627 698 441Z" fill="#FFD175" fill-rule="evenodd"/><path d="M698 402C698 395.373 703.373 390 710 390 716.627 390 722 395.373 722 402 722 408.627 716.627 414 710 414 703.373 414 698 408.627 698 402Z" fill="#F4A000" fill-rule="evenodd"/><path d="M698 324C698 317.373 703.373 312 710 312 716.627 312 722 317.373 722 324 722 330.627 716.627 336 710 336 703.373 336 698 330.627 698 324Z" fill="#F4A000" fill-rule="evenodd"/><path d="M0.00174854-1.5 60.4097-1.42958 60.4062 1.57042-0.00174854 1.5ZM58.9132-4.43133 67.9079 0.0791601 58.9027 4.56867Z" transform="matrix(1 0 0 -1 449.5 214.579)"/><path d="M2.44615e-06-1.5 56.8789-1.49991 56.8789 1.50009-2.44615e-06 1.5ZM55.3789-4.49991 64.3789 0.000104987 55.3789 4.50009Z" transform="matrix(1 0 0 -1 449.5 403.5)"/><path d="M0.0210428-1.49985 54.7885-0.73147 54.7465 2.26823-0.0210428 1.49985ZM53.3308-3.75222 62.2668 0.873596 53.2045 5.2469Z" transform="matrix(1 0 0 -1 281.5 215.374)"/><path d="M0.00133037-1.5 51.4513-1.45437 51.4486 1.54563-0.00133037 1.5ZM49.9539-4.4557 58.9499 0.0522835 49.9459 4.5443Z" transform="matrix(1 0 0 -1 284.5 404.552)"/><path d="M377 252.5 396.5 233 416 252.5 406.25 252.5 406.25 365.5 416 365.5 396.5 385 377 365.5 386.75 365.5 386.75 252.5Z" fill="#7DABF7" fill-rule="evenodd"/><text font-family="Calibri,Calibri_MSFontService,sans-serif" font-weight="700" font-size="19" transform="translate(672.364 229)">Similarity<tspan x="11.9866" y="23">Scores</tspan></text><path d="M343 390.5C343 386.91 345.91 384 349.5 384L442.5 384C446.09 384 449 386.91 449 390.5L449 416.5C449 420.09 446.09 423 442.5 423L349.5 423C345.91 423 343 420.09 343 416.5Z" fill="#4285F4" fill-rule="evenodd"/><text fill="#FFFFFF" font-family="Calibri,Calibri_MSFontService,sans-serif" font-weight="700" font-size="24" transform="translate(356.038 411)">Encoder</text><path d="M878.5 506.754C878.5 499.986 883.986 494.5 890.754 494.5L934.246 494.5C941.014 494.5 946.5 499.986 946.5 506.754L946.5 521.246C946.5 528.014 941.014 533.5 934.246 533.5L890.754 533.5C883.986 533.5 878.5 528.014 878.5 521.246Z" stroke="#1B9E77" stroke-width="3" stroke-linejoin="round" stroke-miterlimit="10" fill="#FFFFFF" fill-rule="evenodd"/><text font-family="Calibri,Calibri_MSFontService,sans-serif" font-weight="400" font-size="19" transform="translate(891.418 519)">Top 1<tspan fill="#FFFFFF" font-size="24" x="-678.105" y="230">encoder</tspan></text><path d="M563 286.5C563 280.149 568.373 275 575 275 581.627 275 587 280.149 587 286.5 587 292.851 581.627 298 575 298 568.373 298 563 292.851 563 286.5Z" fill="#595959" fill-rule="evenodd"/><path d="M596 286.5C596 280.149 601.373 275 608 275 614.627 275 620 280.149 620 286.5 620 292.851 614.627 298 608 298 601.373 298 596 292.851 596 286.5Z" fill="#595959" fill-rule="evenodd"/><path d="M530 286.5C530 280.149 535.373 275 542 275 548.627 275 554 280.149 554 286.5 554 292.851 548.627 298 542 298 535.373 298 530 292.851 530 286.5Z" fill="#595959" fill-rule="evenodd"/><path d="M563 326.5C563 320.149 568.373 315 575 315 581.627 315 587 320.149 587 326.5 587 332.851 581.627 338 575 338 568.373 338 563 332.851 563 326.5Z" fill="#595959" fill-rule="evenodd"/><path d="M596 326.5C596 320.149 601.373 315 608 315 614.627 315 620 320.149 620 326.5 620 332.851 614.627 338 608 338 601.373 338 596 332.851 596 326.5Z" fill="#595959" fill-rule="evenodd"/><path d="M530 326.5C530 320.149 535.373 315 542 315 548.627 315 554 320.149 554 326.5 554 332.851 548.627 338 542 338 535.373 338 530 332.851 530 326.5Z" fill="#595959" fill-rule="evenodd"/><path d="M563 366.5C563 360.149 568.373 355 575 355 581.627 355 587 360.149 587 366.5 587 372.851 581.627 378 575 378 568.373 378 563 372.851 563 366.5Z" fill="#595959" fill-rule="evenodd"/><path d="M596 366.5C596 360.149 601.373 355 608 355 614.627 355 620 360.149 620 366.5 620 372.851 614.627 378 608 378 601.373 378 596 372.851 596 366.5Z" fill="#595959" fill-rule="evenodd"/><path d="M530 366.5C530 360.149 535.373 355 542 355 548.627 355 554 360.149 554 366.5 554 372.851 548.627 378 542 378 535.373 378 530 372.851 530 366.5Z" fill="#595959" fill-rule="evenodd"/><path d="M563 444C563 437.373 568.373 432 575 432 581.627 432 587 437.373 587 444 587 450.627 581.627 456 575 456 568.373 456 563 450.627 563 444Z" fill="#595959" fill-rule="evenodd"/><path d="M596 444C596 437.373 601.373 432 608 432 614.627 432 620 437.373 620 444 620 450.627 614.627 456 608 456 601.373 456 596 450.627 596 444Z" fill="#595959" fill-rule="evenodd"/><path d="M530 444C530 437.373 535.373 432 542 432 548.627 432 554 437.373 554 444 554 450.627 548.627 456 542 456 535.373 456 530 450.627 530 444Z" fill="#595959" fill-rule="evenodd"/><path d="M563 403.5C563 397.149 568.373 392 575 392 581.627 392 587 397.149 587 403.5 587 409.851 581.627 415 575 415 568.373 415 563 409.851 563 403.5Z" fill="#595959" fill-rule="evenodd"/><path d="M596 403.5C596 397.149 601.373 392 608 392 614.627 392 620 397.149 620 403.5 620 409.851 614.627 415 608 415 601.373 415 596 409.851 596 403.5Z" fill="#595959" fill-rule="evenodd"/><path d="M530 403.5C530 397.149 535.373 392 542 392 548.627 392 554 397.149 554 403.5 554 409.851 548.627 415 542 415 535.373 415 530 409.851 530 403.5Z" fill="#595959" fill-rule="evenodd"/><path d="M563 482C563 475.373 568.373 470 575 470 581.627 470 587 475.373 587 482 587 488.627 581.627 494 575 494 568.373 494 563 488.627 563 482Z" fill="#595959" fill-rule="evenodd"/><path d="M596 482C596 475.373 601.373 470 608 470 614.627 470 620 475.373 620 482 620 488.627 614.627 494 608 494 601.373 494 596 488.627 596 482Z" fill="#595959" fill-rule="evenodd"/><path d="M530 482C530 475.373 535.373 470 542 470 548.627 470 554 475.373 554 482 554 488.627 548.627 494 542 494 535.373 494 530 488.627 530 482Z" fill="#595959" fill-rule="evenodd"/><path d="M563 522C563 515.373 568.373 510 575 510 581.627 510 587 515.373 587 522 587 528.627 581.627 534 575 534 568.373 534 563 528.627 563 522Z" fill="#595959" fill-rule="evenodd"/><path d="M596 522C596 515.373 601.373 510 608 510 614.627 510 620 515.373 620 522 620 528.627 614.627 534 608 534 601.373 534 596 528.627 596 522Z" fill="#595959" fill-rule="evenodd"/><path d="M530 522C530 515.373 535.373 510 542 510 548.627 510 554 515.373 554 522 554 528.627 548.627 534 542 534 535.373 534 530 528.627 530 522Z" fill="#595959" fill-rule="evenodd"/><text font-family="Calibri,Calibri_MSFontService,sans-serif" font-weight="400" font-size="19" transform="translate(474.087 104)">Iterative Update with <tspan font-weight="700" x="165.693" y="0">Synonym Marginalization </tspan></text><path d="M160 285.667C160 274.253 169.253 265 180.667 265L263.333 265C274.747 265 284 274.253 284 285.667L284 521.333C284 532.747 274.747 542 263.333 542L180.667 542C169.253 542 160 532.747 160 521.333Z" stroke="#000000" stroke-width="2" stroke-miterlimit="8" stroke-dasharray="2 2" fill="none" fill-rule="evenodd"/><path d="M163 361.813C163 354.184 169.184 348 176.813 348L267.187 348C274.816 348 281 354.184 281 361.813L281 369.187C281 376.816 274.816 383 267.187 383L176.813 383C169.184 383 163 376.816 163 369.187Z" fill="#ACCAFA" fill-rule="evenodd"/><text font-family="Calibri,Calibri_MSFontService,sans-serif" font-weight="400" font-size="19" transform="translate(184.731 371)">Circovirus</text><path d="M163 401.418C163 394.008 169.008 388 176.418 388L267.582 388C274.992 388 281 394.008 281 401.418L281 408.582C281 415.992 274.992 422 267.582 422L176.418 422C169.008 422 163 415.992 163 408.582Z" fill="#ACCAFA" fill-rule="evenodd"/><text font-family="Calibri,Calibri_MSFontService,sans-serif" font-weight="400" font-size="19" transform="translate(203.171 410)">SARS</text><path d="M163 440.418C163 433.008 169.008 427 176.418 427L267.582 427C274.992 427 281 433.008 281 440.418L281 447.582C281 454.992 274.992 461 267.582 461L176.418 461C169.008 461 163 454.992 163 447.582Z" fill="#ACCAFA" fill-rule="evenodd"/><text font-family="Calibri,Calibri_MSFontService,sans-serif" font-weight="400" font-size="19" transform="translate(178.728 450)">Pneumonia</text><path d="M163 479.418C163 472.008 169.008 466 176.418 466L267.582 466C274.992 466 281 472.008 281 479.418L281 486.582C281 493.992 274.992 500 267.582 500L176.418 500C169.008 500 163 493.992 163 486.582Z" fill="#EDA19B" fill-rule="evenodd"/><text font-family="Calibri,Calibri_MSFontService,sans-serif" font-weight="400" font-size="19" transform="translate(179.285 489)">SARS<tspan x="37.6133" y="0">-</tspan><tspan x="43.28" y="0">COV2</tspan></text><path d="M163 518.418C163 511.008 169.008 505 176.418 505L267.582 505C274.992 505 281 511.008 281 518.418L281 525.582C281 532.992 274.992 539 267.582 539L176.418 539C169.008 539 163 532.992 163 525.582Z" fill="#ACCAFA" fill-rule="evenodd"/><text font-family="Calibri,Calibri_MSFontService,sans-serif" font-weight="400" font-size="19" transform="translate(187.268 528)">Influenza</text><path d="M163 283.418C163 276.008 169.008 270 176.418 270L267.582 270C274.992 270 281 276.008 281 283.418L281 290.582C281 297.992 274.992 304 267.582 304L176.418 304C169.008 304 163 297.992 163 290.582Z" fill="#EDA19B" fill-rule="evenodd"/><text font-family="Calibri,Calibri_MSFontService,sans-serif" font-weight="400" font-size="19" transform="translate(185.258 293)">COVID<tspan x="48.7733" y="0">-</tspan><tspan x="54.44" y="0">19</tspan></text><path d="M163 97.3335C163 92.1787 167.179 88 172.333 88L315.667 88C320.821 88 325 92.1787 325 97.3335L325 134.667C325 139.821 320.821 144 315.667 144L172.333 144C167.179 144 163 139.821 163 134.667Z" stroke="#000000" stroke-width="2" stroke-miterlimit="8" fill="#FFFFFF" fill-rule="evenodd"/><rect x="358" y="281" width="77" height="55" fill="#E8F0F7"/><text font-family="Calibri,Calibri_MSFontService,sans-serif" font-weight="400" font-size="19" transform="translate(369.075 303)">Weight<tspan x="-1.18002" y="23">Sharing</tspan></text><path d="M2.65005e-06-1.5 51.9253-1.49991 51.9253 1.50009-2.65005e-06 1.5ZM50.4253-4.49991 59.4253 0.000104987 50.4253 4.50009Z" transform="matrix(1 0 0 -1 726.5 402.5)"/><path d="M946.5 512 991.758 512 991.758 515 946.5 515ZM990.258 509 1005.26 513.5 990.258 518Z" fill="#1B9E77"/><text font-family="Calibri,Calibri_MSFontService,sans-serif" font-weight="700" font-size="19" transform="translate(239.175 108)">Training<tspan x="0.586136" y="25">Inference</tspan></text><path d="M1013.5 516.5C1013.5 509.873 1018.65 504.5 1025 504.5 1031.35 504.5 1036.5 509.873 1036.5 516.5 1036.5 523.128 1031.35 528.5 1025 528.5 1018.65 528.5 1013.5 523.128 1013.5 516.5Z" stroke="#DB4437" stroke-width="3" stroke-miterlimit="8" fill="#C88500" fill-rule="evenodd"/><path d="M163 322.418C163 315.008 169.008 309 176.418 309L267.582 309C274.992 309 281 315.008 281 322.418L281 329.582C281 336.992 274.992 343 267.582 343L176.418 343C169.008 343 163 336.992 163 329.582Z" fill="#ACCAFA" fill-rule="evenodd"/><text font-family="Calibri,Calibri_MSFontService,sans-serif" font-weight="400" font-size="19" transform="translate(200.184 332)">MERS<tspan font-weight="700" x="-12.0802" y="-143">Mention</tspan></text><path d="M164 211.418C164 204.008 170.008 198 177.418 198L267.582 198C274.992 198 281 204.008 281 211.418L281 218.582C281 225.992 274.992 232 267.582 232L177.418 232C170.008 232 164 225.992 164 218.582Z" fill="#EDA19B" fill-rule="evenodd"/><text font-family="Calibri,Calibri_MSFontService,sans-serif" font-weight="400" font-size="19" transform="translate(192.792 221)">covid19<tspan font-weight="700" x="640.878" y="10">MML over Synonyms</tspan><tspan x="628.072" y="33">(       indicates synonyms)</tspan></text><path d="M830 247.5C830 242.253 834.029 238 839 238 843.971 238 848 242.253 848 247.5 848 252.747 843.971 257 839 257 834.029 257 830 252.747 830 247.5Z" stroke="#D95F02" stroke-width="4" stroke-miterlimit="8" fill="none" fill-rule="evenodd"/><text font-family="Calibri,Calibri_MSFontService,sans-serif" font-weight="400" font-size="19" transform="translate(738.503 394)">Sort</text><path d="M1006 273.333C1006 269.836 1008.84 267 1012.33 267L1037.67 267C1041.16 267 1044 269.836 1044 273.333L1044 426.667C1044 430.164 1041.16 433 1037.67 433L1012.33 433C1008.84 433 1006 430.164 1006 426.667Z" stroke="#000000" stroke-width="2" stroke-miterlimit="8" stroke-dasharray="2 2" fill="#FFFFFF" fill-rule="evenodd"/><path d="M1014.5 410.5C1014.5 403.873 1019.65 398.5 1026 398.5 1032.35 398.5 1037.5 403.873 1037.5 410.5 1037.5 417.127 1032.35 422.5 1026 422.5 1019.65 422.5 1014.5 417.127 1014.5 410.5Z" stroke="#D95F02" stroke-width="3" stroke-miterlimit="8" fill="#A26C00" fill-rule="evenodd"/><path d="M1014.5 289.5C1014.5 282.873 1019.65 277.5 1026 277.5 1032.35 277.5 1037.5 282.873 1037.5 289.5 1037.5 296.127 1032.35 301.5 1026 301.5 1019.65 301.5 1014.5 296.127 1014.5 289.5Z" stroke="#D95F02" stroke-width="3" stroke-miterlimit="8" fill="#A26C00" fill-rule="evenodd"/><path d="M1014 371C1014 364.373 1019.15 359 1025.5 359 1031.85 359 1037 364.373 1037 371 1037 377.627 1031.85 383 1025.5 383 1019.15 383 1014 377.627 1014 371Z" fill="#FFC85B" fill-rule="evenodd"/><path d="M1014 328.5C1014 322.149 1019.15 317 1025.5 317 1031.85 317 1037 322.149 1037 328.5 1037 334.851 1031.85 340 1025.5 340 1019.15 340 1014 334.851 1014 328.5Z" fill="#FFC85B" fill-rule="evenodd"/><path d="M786 271.167C786 268.313 788.313 266 791.167 266L811.833 266C814.687 266 817 268.313 817 271.167L817 532.833C817 535.687 814.687 538 811.833 538L791.167 538C788.313 538 786 535.687 786 532.833Z" stroke="#000000" stroke-width="2" stroke-miterlimit="8" stroke-dasharray="2 2" fill="#FFFFFF" fill-rule="evenodd"/><path d="M791.5 404.5C791.5 397.873 796.649 392.5 803 392.5 809.351 392.5 814.5 397.873 814.5 404.5 814.5 411.127 809.351 416.5 803 416.5 796.649 416.5 791.5 411.127 791.5 404.5Z" stroke="#D95F02" stroke-width="3" stroke-miterlimit="8" fill="#F4A000" fill-rule="evenodd"/><path d="M791.5 287.5C791.5 280.873 796.649 275.5 803 275.5 809.351 275.5 814.5 280.873 814.5 287.5 814.5 294.127 809.351 299.5 803 299.5 796.649 299.5 791.5 294.127 791.5 287.5Z" stroke="#D95F02" stroke-width="3" stroke-miterlimit="8" fill="#C88500" fill-rule="evenodd"/><path d="M791 482C791 475.373 796.149 470 802.5 470 808.851 470 814 475.373 814 482 814 488.627 808.851 494 802.5 494 796.149 494 791 488.627 791 482Z" fill="#FFD175" fill-rule="evenodd"/><path d="M791 443C791 436.373 796.149 431 802.5 431 808.851 431 814 436.373 814 443 814 449.627 808.851 455 802.5 455 796.149 455 791 449.627 791 443Z" fill="#F4A000" fill-rule="evenodd"/><path d="M791 365C791 358.373 796.149 353 802.5 353 808.851 353 814 358.373 814 365 814 371.627 808.851 377 802.5 377 796.149 377 791 371.627 791 365Z" fill="#F4A000" fill-rule="evenodd"/><path d="M791 521C791 514.373 796.149 509 802.5 509 808.851 509 814 514.373 814 521 814 527.627 808.851 533 802.5 533 796.149 533 791 527.627 791 521Z" fill="#FFD175" fill-rule="evenodd"/><path d="M791 326C791 319.373 796.149 314 802.5 314 808.851 314 814 319.373 814 326 814 332.627 808.851 338 802.5 338 796.149 338 791 332.627 791 326Z" fill="#C88500" fill-rule="evenodd"/><path d="M786.5 273.667C786.5 270.813 788.813 268.5 791.667 268.5L812.333 268.5C815.187 268.5 817.5 270.813 817.5 273.667L817.5 422.333C817.5 425.187 815.187 427.5 812.333 427.5L791.667 427.5C788.813 427.5 786.5 425.187 786.5 422.333Z" stroke="#D95F02" stroke-width="3" stroke-miterlimit="8" fill="none" fill-rule="evenodd"/><path d="M786.5 276.667C786.5 273.813 788.813 271.5 791.667 271.5L812.333 271.5C815.187 271.5 817.5 273.813 817.5 276.667L817.5 298.333C817.5 301.187 815.187 303.5 812.333 303.5L791.667 303.5C788.813 303.5 786.5 301.187 786.5 298.333Z" stroke="#1B9E77" stroke-width="3" stroke-miterlimit="8" fill="none" fill-rule="evenodd"/><path d="M878.5 339.069C878.5 332.127 884.127 326.5 891.069 326.5L932.931 326.5C939.873 326.5 945.5 332.127 945.5 339.069L945.5 353.931C945.5 360.873 939.873 366.5 932.931 366.5L891.069 366.5C884.127 366.5 878.5 360.873 878.5 353.931Z" stroke="#D95F02" stroke-width="3" stroke-linejoin="round" stroke-miterlimit="10" fill="#FFFFFF" fill-rule="evenodd"/><text font-family="Calibri,Calibri_MSFontService,sans-serif" font-weight="400" font-size="19" transform="translate(891.508 352)">Top k</text><path d="M172.5 102 210.415 102 210.415 105 172.5 105ZM208.915 99.0001 223.915 103.5 208.915 108Z" fill="#D95F02"/><path d="M172.5 125 210.415 125 210.415 128 172.5 128ZM208.915 122 223.915 126.5 208.915 131Z" fill="#1B9E77"/><path d="M569 248.5C569 244.91 571.91 242 575.5 242 579.09 242 582 244.91 582 248.5 582 252.09 579.09 255 575.5 255 571.91 255 569 252.09 569 248.5Z" stroke="#000000" stroke-width="2" stroke-miterlimit="8" fill="#FFFFFF" fill-rule="evenodd"/><path d="M511 562.5C511 558.91 513.91 556 517.5 556 521.09 556 524 558.91 524 562.5 524 566.09 521.09 569 517.5 569 513.91 569 511 566.09 511 562.5Z" stroke="#000000" stroke-width="2" stroke-miterlimit="8" fill="#FFFFFF" fill-rule="evenodd"/><text font-family="Calibri,Calibri_MSFontService,sans-serif" font-weight="400" font-size="19" transform="translate(531.224 568)">: Inner<tspan x="53.5" y="0">Product</tspan><tspan font-weight="700" font-size="37" x="114.153" y="-315">=</tspan></text><path d="M698.5 480.5C698.5 473.873 703.873 468.5 710.5 468.5 717.128 468.5 722.5 473.873 722.5 480.5 722.5 487.127 717.128 492.5 710.5 492.5 703.873 492.5 698.5 487.127 698.5 480.5Z" stroke="#D95F02" stroke-width="3" stroke-miterlimit="8" fill="#F4A000" fill-rule="evenodd"/><path d="M698 363C698 356.373 703.373 351 710 351 716.627 351 722 356.373 722 363 722 369.627 716.627 375 710 375 703.373 375 698 369.627 698 363Z" fill="#C88500" fill-rule="evenodd"/><path d="M698 519C698 512.373 703.373 507 710 507 716.627 507 722 512.373 722 519 722 525.627 716.627 531 710 531 703.373 531 698 525.627 698 519Z" fill="#FFD175" fill-rule="evenodd"/><path d="M819 432 819 370 847 432Z" fill="#FFE3E3" fill-rule="evenodd"/><text fill="#FFFFFF" font-family="Calibri,Calibri_MSFontService,sans-serif" font-weight="400" font-size="24" transform="translate(817.532 750)">encoder</text></g></svg>